<?xml version="1.0" encoding="iso-8859-1"?>
<!-- Generator: Adobe Illustrator 19.0.0, SVG Export Plug-In . SVG Version: 6.00 Build 0)  -->
<svg version="1.1" id="Layer_1" xmlns="http://www.w3.org/2000/svg" xmlns:xlink="http://www.w3.org/1999/xlink" x="0px" y="0px"
	 viewBox="0 0 512 512" style="enable-background:new 0 0 512 512;" xml:space="preserve">
<circle style="fill:#88C5CC;" cx="256" cy="256" r="256"/>
<path style="fill:#80B9BF;" d="M492.252,354.724c-0.092-0.2-0.132-0.416-0.252-0.604c-0.188-0.724-0.452-1.416-0.828-2.056
	c-0.188-0.72-0.452-1.416-0.828-2.052c-0.188-0.72-0.452-1.412-0.828-2.048c-0.188-0.724-0.452-1.416-0.828-2.056
	c-0.188-0.72-0.448-1.412-0.828-2.048c-0.188-0.72-0.448-1.416-0.828-2.052c-0.188-0.72-0.448-1.416-0.828-2.048
	c-0.188-0.724-0.448-1.416-0.828-2.056c-0.188-0.72-0.448-1.412-0.824-2.048c-0.192-0.72-0.452-1.412-0.828-2.052
	c-0.192-0.72-0.448-1.412-0.824-2.048c-0.188-0.724-0.452-1.416-0.828-2.056c-0.188-0.72-0.452-1.416-0.828-2.052
	c-0.188-0.724-0.452-1.416-0.828-2.048c-0.188-0.724-0.452-1.416-0.828-2.056c-0.188-0.72-0.452-1.412-0.828-2.048
	c-0.188-0.72-0.452-1.416-0.828-2.052c-0.188-0.724-0.452-1.416-0.828-2.052c-0.188-0.72-0.452-1.412-0.828-2.052
	c-0.188-0.72-0.452-1.416-0.828-2.052c-0.188-0.724-0.452-1.416-0.828-2.052c-0.188-0.72-0.452-1.412-0.828-2.052
	c-0.188-0.72-0.448-1.412-0.828-2.048c-0.188-0.72-0.448-1.416-0.828-2.056c-0.188-0.72-0.448-1.412-0.828-2.048
	c-0.188-0.72-0.448-1.412-0.828-2.052c-0.188-0.716-0.444-1.408-0.82-2.036c-0.188-0.732-0.452-1.42-0.828-2.068
	c-0.192-0.72-0.452-1.412-0.828-2.052c-0.192-0.72-0.452-1.412-0.828-2.048c-0.192-0.724-0.452-1.416-0.828-2.056
	c-0.188-0.72-0.452-1.412-0.828-2.048c-0.188-0.72-0.452-1.412-0.828-2.052c-0.188-0.724-0.452-1.416-0.828-2.048
	c-0.188-0.724-0.452-1.416-0.828-2.056c-0.188-0.72-0.452-1.412-0.828-2.048c-0.188-0.72-0.452-1.416-0.828-2.052
	c-0.188-0.724-0.452-1.416-0.828-2.052c-0.188-0.72-0.452-1.412-0.828-2.052c-0.188-0.72-0.452-1.412-0.828-2.052
	c-0.188-0.724-0.452-1.416-0.828-2.052c-0.188-0.72-0.448-1.408-0.824-2.044c-0.188-0.724-0.452-1.416-0.828-2.056
	c-0.188-0.72-0.452-1.416-0.828-2.052c-0.188-0.724-0.452-1.416-0.828-2.052c-0.188-0.72-0.452-1.416-0.828-2.052
	c-0.188-0.72-0.452-1.416-0.828-2.048c-0.188-0.724-0.452-1.416-0.828-2.056c-0.188-0.72-0.452-1.416-0.828-2.052
	c-0.188-0.72-0.452-1.412-0.828-2.048c-0.188-0.724-0.448-1.416-0.828-2.056c-0.188-0.72-0.448-1.412-0.828-2.048
	c-0.188-0.72-0.448-1.416-0.828-2.052c-0.188-0.72-0.448-1.416-0.828-2.048c-0.188-0.724-0.448-1.416-0.828-2.056
	c-0.188-0.72-0.448-1.412-0.828-2.048c-0.188-0.716-0.444-1.408-0.816-2.04c-0.192-0.732-0.456-1.42-0.836-2.068
	c-0.188-0.72-0.448-1.412-0.824-2.048c-0.192-0.72-0.452-1.416-0.828-2.052c-0.192-0.724-0.452-1.416-0.828-2.052
	c-0.192-0.72-0.452-1.412-0.828-2.052c-0.192-0.72-0.452-1.412-0.828-2.048c-0.188-0.72-0.452-1.416-0.828-2.052
	c-0.188-0.724-0.452-1.416-0.828-2.052c-0.188-0.72-0.452-1.412-0.828-2.052c-0.188-0.72-0.452-1.416-0.828-2.052
	c-0.188-0.724-0.452-1.416-0.828-2.048c-0.188-0.724-0.452-1.416-0.828-2.056c-0.188-0.72-0.452-1.416-0.828-2.048
	c-0.188-0.72-0.452-1.416-0.828-2.056c-0.188-0.716-0.448-1.404-0.82-2.036c-0.188-0.728-0.456-1.416-0.832-2.064
	c-0.188-0.724-0.452-1.412-0.828-2.052c-0.188-0.72-0.452-1.416-0.828-2.048c-0.188-0.724-0.452-1.416-0.828-2.052
	c-0.188-0.724-0.452-1.412-0.828-2.052c-0.188-0.72-0.452-1.416-0.828-2.056c-0.696-2.656-2.708-4.904-5.548-5.7l-0.552-0.156
	c-0.184-0.54-0.42-1.064-0.692-1.584c-0.204-0.704-0.484-1.392-0.828-2.056c-0.204-0.696-0.48-1.368-0.816-2.032
	c-0.208-0.708-0.488-1.396-0.832-2.072c-0.208-0.704-0.488-1.376-0.828-2.048c-0.208-0.704-0.488-1.388-0.828-2.056
	c-0.208-0.7-0.488-1.376-0.828-2.044c-0.208-0.7-0.488-1.388-0.828-2.052c-0.208-0.704-0.488-1.392-0.828-2.056
	c-0.252-0.856-0.58-1.696-1.024-2.5c-1.368-2.424-3.48-4.156-5.888-5.148c-0.136-0.328-0.272-0.656-0.456-0.96
	c-0.188-0.728-0.448-1.416-0.828-2.056c-0.188-0.72-0.448-1.408-0.82-2.04c-0.192-0.728-0.452-1.42-0.832-2.064
	c-0.192-0.72-0.452-1.416-0.824-2.048c-0.188-0.724-0.452-1.416-0.832-2.056c-0.188-0.72-0.452-1.416-0.824-2.044
	c-0.188-0.724-0.452-1.416-0.828-2.052c-0.188-0.728-0.452-1.416-0.832-2.06c-0.692-2.66-2.708-4.9-5.544-5.7
	c-4.252-1.196-8.676,1.28-9.872,5.54l-8.292,29.48l-27.928,15.664l-16.752-9.672c-0.056-0.104-0.104-0.216-0.168-0.32
	c-0.176-0.712-0.448-1.404-0.832-2.056c-0.176-0.708-0.448-1.396-0.824-2.044c-0.176-0.712-0.448-1.408-0.828-2.056
	c-0.18-0.712-0.452-1.396-0.824-2.048c-0.176-0.712-0.452-1.408-0.832-2.056c-0.18-0.712-0.452-1.392-0.824-2.048
	c-0.176-0.712-0.452-1.404-0.832-2.056c-0.176-0.708-0.452-1.392-0.824-2.044c-0.176-0.716-0.452-1.404-0.828-2.052
	c-0.176-0.716-0.452-1.408-0.832-2.06c-0.176-0.708-0.452-1.392-0.824-2.044c-0.176-0.712-0.448-1.392-0.82-2.04
	c-0.176-0.72-0.456-1.408-0.832-2.064c-0.176-0.712-0.456-1.404-0.832-2.056c-0.176-0.708-0.452-1.392-0.824-2.044
	c-0.176-0.716-0.456-1.404-0.832-2.06c-0.176-0.708-0.452-1.392-0.824-2.044c-0.176-0.712-0.452-1.4-0.828-2.052
	c-0.176-0.712-0.456-1.408-0.832-2.056c-0.176-0.712-0.452-1.396-0.824-2.048c-0.176-0.712-0.456-1.404-0.832-2.056
	c-0.176-0.712-0.452-1.392-0.824-2.048c-0.176-0.712-0.456-1.404-0.832-2.056c-0.176-0.708-0.452-1.392-0.824-2.044
	c-0.176-0.712-0.456-1.404-0.832-2.06c-0.176-0.704-0.448-1.392-0.824-2.04c-0.176-0.708-0.444-1.392-0.82-2.032
	c-0.176-0.728-0.452-1.416-0.836-2.08c-0.176-0.712-0.448-1.392-0.824-2.048c-0.176-0.712-0.448-1.404-0.832-2.056
	c-0.176-0.708-0.448-1.392-0.824-2.044c-0.176-0.716-0.448-1.404-0.832-2.06c-0.176-0.704-0.448-1.392-0.82-2.04
	c-0.18-0.716-0.452-1.408-0.832-2.06c-0.18-0.708-0.452-1.396-0.824-2.044c-0.176-0.712-0.452-1.4-0.828-2.056
	c-0.176-0.712-0.452-1.404-0.832-2.056c-0.176-0.708-0.452-1.392-0.824-2.044c-0.176-0.716-0.452-1.404-0.832-2.06
	c-0.176-0.704-0.452-1.392-0.824-2.04c-0.176-0.716-0.452-1.408-0.832-2.06c-0.172-0.708-0.448-1.38-0.816-2.024
	c-0.176-0.724-0.456-1.416-0.836-2.076c-0.176-0.712-0.452-1.396-0.824-2.048c-0.176-0.712-0.456-1.408-0.832-2.056
	c-0.176-0.712-0.452-1.392-0.824-2.048c-0.176-0.712-0.452-1.4-0.828-2.052c-0.176-0.712-0.456-1.404-0.832-2.056
	c-0.336-1.364-1.012-2.664-2.08-3.732c-3.124-3.124-8.192-3.124-11.312,0l-9.504,9.5c-0.164-0.416-0.368-0.82-0.576-1.22
	c-0.22-0.72-0.492-1.408-0.832-2.06C265.944,79.64,261.404,76,256,76c-6.6,0-12,5.4-12,12v0.688l-10.344-10.344
	c-3.124-3.124-8.188-3.124-11.312,0c-2.612,2.612-3.012,6.572-1.252,9.628c0.176,0.708,0.448,1.392,0.82,2.044
	c0.18,0.712,0.452,1.4,0.828,2.056c0.18,0.712,0.456,1.404,0.832,2.056c0.18,0.708,0.452,1.392,0.824,2.044
	c0.176,0.716,0.456,1.404,0.832,2.06c0.172,0.704,0.444,1.376,0.816,2.024c0.176,0.724,0.456,1.416,0.836,2.076
	c0.176,0.708,0.452,1.396,0.824,2.044c0.176,0.712,0.452,1.408,0.832,2.056c0.176,0.712,0.452,1.396,0.824,2.048
	c0.176,0.712,0.452,1.404,0.832,2.056c0.176,0.712,0.452,1.392,0.824,2.048c0.176,0.712,0.452,1.4,0.828,2.048
	c0.176,0.716,0.452,1.408,0.832,2.06c0.176,0.708,0.452,1.396,0.824,2.044c0.176,0.712,0.452,1.408,0.832,2.056
	c0.176,0.712,0.452,1.396,0.824,2.048c0.176,0.712,0.452,1.408,0.832,2.056c0.176,0.712,0.452,1.392,0.824,2.048
	c0.176,0.712,0.452,1.404,0.832,2.056c0.172,0.704,0.448,1.38,0.816,2.024c0.176,0.72,0.452,1.416,0.832,2.072
	c0.176,0.712,0.456,1.408,0.832,2.06c0.176,0.708,0.452,1.392,0.824,2.044c0.176,0.712,0.456,1.408,0.832,2.056
	c0.176,0.712,0.448,1.392,0.824,2.048c0.176,0.712,0.452,1.404,0.832,2.056c0.076,0.296,0.152,0.592,0.256,0.884L163.6,190.46
	l-23.252-13.04c-0.14-0.368-0.284-0.728-0.472-1.064l-0.084-0.312c-0.176-0.624-0.436-1.2-0.748-1.744l-0.084-0.308
	c-0.176-0.62-0.436-1.192-0.744-1.74l-0.084-0.312c-0.176-0.62-0.436-1.196-0.744-1.736l-0.084-0.32
	c-0.176-0.624-0.436-1.196-0.748-1.74l-0.084-0.308c-0.176-0.616-0.436-1.192-0.74-1.736l-0.088-0.316
	c-0.176-0.624-0.436-1.2-0.748-1.74l-0.084-0.312c-0.176-0.616-0.436-1.196-0.74-1.736l-0.088-0.316
	c-0.176-0.62-0.436-1.196-0.744-1.74l-0.084-0.308c-0.172-0.616-0.432-1.188-0.732-1.724l-0.092-0.328
	c-0.176-0.624-0.436-1.196-0.744-1.744l-0.084-0.304c-0.176-0.624-0.436-1.2-0.74-1.74l-0.088-0.316
	c-0.176-0.624-0.432-1.196-0.744-1.744l-0.084-0.304c-0.176-0.62-0.432-1.196-0.74-1.736l-0.088-0.32
	c-0.176-0.616-0.432-1.196-0.74-1.736l-0.088-0.316c-0.176-0.62-0.432-1.196-0.744-1.74l-0.084-0.308
	c-1.196-4.252-5.608-6.732-9.868-5.536c-4.252,1.2-6.732,5.608-5.532,9.868l3.964,14.084l-0.604-0.344
	c-5.756-3.232-13.104-1.156-16.336,4.596c-2.048,3.652-1.948,7.932-0.144,11.416c0.216,0.704,0.484,1.384,0.824,2.04
	c0.216,0.708,0.488,1.396,0.828,2.052c0.208,0.684,0.46,1.348,0.784,1.984l-11.176,3.144c-4.252,1.196-6.736,5.608-5.54,9.868
	c0.188,0.652,0.464,1.252,0.784,1.804c0.02,0.084,0.02,0.164,0.044,0.244c0.188,0.652,0.46,1.244,0.784,1.804
	c0.02,0.084,0.02,0.164,0.044,0.252c0.188,0.648,0.46,1.244,0.784,1.804c0.02,0.084,0.02,0.164,0.044,0.248
	c0.184,0.652,0.464,1.248,0.784,1.8c0.02,0.084,0.02,0.164,0.044,0.248c0.184,0.652,0.46,1.248,0.784,1.804
	c0.02,0.084,0.02,0.164,0.044,0.248c0.184,0.656,0.464,1.252,0.784,1.804c0.02,0.084,0.02,0.16,0.044,0.244
	c0.184,0.648,0.46,1.244,0.78,1.796c0.02,0.084,0.02,0.172,0.044,0.252c0.184,0.652,0.464,1.248,0.784,1.804
	c0.02,0.084,0.02,0.164,0.044,0.244c0.184,0.652,0.464,1.248,0.784,1.804c0.02,0.084,0.02,0.164,0.044,0.252
	c0.184,0.648,0.464,1.248,0.784,1.8c0.02,0.084,0.02,0.16,0.044,0.248c0.184,0.652,0.464,1.244,0.784,1.804
	c0.02,0.084,0.02,0.164,0.044,0.248c0.184,0.652,0.464,1.252,0.784,1.804c0.02,0.084,0.02,0.164,0.044,0.244
	c0.184,0.652,0.464,1.248,0.784,1.804c0.02,0.084,0.02,0.164,0.044,0.252c0.184,0.652,0.464,1.244,0.784,1.804
	c0.02,0.084,0.02,0.164,0.044,0.248c0.184,0.652,0.464,1.252,0.784,1.804c0.02,0.084,0.02,0.164,0.044,0.244
	c0.184,0.652,0.464,1.248,0.784,1.804c0.02,0.084,0.02,0.164,0.044,0.252c0.184,0.652,0.464,1.248,0.784,1.8
	c0.02,0.084,0.02,0.16,0.044,0.248c0.184,0.652,0.464,1.244,0.784,1.804c0.02,0.084,0.02,0.164,0.044,0.248
	c0.184,0.652,0.464,1.252,0.784,1.804c0.02,0.084,0.02,0.164,0.044,0.248c0.184,0.648,0.464,1.244,0.784,1.8
	c0.02,0.084,0.02,0.164,0.044,0.252c0.184,0.652,0.464,1.248,0.784,1.804c0.02,0.084,0.02,0.16,0.044,0.244
	c0.184,0.648,0.46,1.244,0.776,1.796c0.024,0.084,0.024,0.168,0.048,0.252c0.184,0.652,0.456,1.248,0.78,1.804
	c0.024,0.084,0.024,0.164,0.048,0.252c0.184,0.652,0.46,1.248,0.78,1.804c0.024,0.084,0.024,0.156,0.048,0.244
	c0.184,0.652,0.456,1.244,0.78,1.804c0.024,0.084,0.024,0.164,0.048,0.248c0.184,0.652,0.46,1.252,0.78,1.804
	c0.02,0.084,0.02,0.164,0.048,0.248c0.184,0.648,0.456,1.244,0.78,1.8c0.02,0.084,0.02,0.164,0.048,0.252
	c0.184,0.652,0.46,1.248,0.78,1.804c0.02,0.084,0.02,0.16,0.048,0.244c0.184,0.652,0.456,1.248,0.78,1.804
	c0.02,0.084,0.02,0.164,0.048,0.248c0.184,0.652,0.46,1.252,0.78,1.804c0.02,0.084,0.02,0.164,0.044,0.248
	c0.188,0.652,0.46,1.244,0.784,1.804c0.02,0.084,0.02,0.164,0.044,0.248c0.188,0.652,0.46,1.248,0.784,1.804
	c0.02,0.084,0.02,0.164,0.044,0.248c0.184,0.652,0.464,1.252,0.784,1.804c0.02,0.084,0.02,0.164,0.044,0.248
	c0.184,0.652,0.46,1.244,0.784,1.804c0.02,0.084,0.02,0.16,0.044,0.248c0.184,0.652,0.464,1.248,0.784,1.804
	c0.02,0.084,0.02,0.16,0.044,0.244c0.184,0.652,0.46,1.248,0.784,1.804c0.02,0.084,0.02,0.164,0.044,0.252
	c0.184,0.644,0.46,1.24,0.78,1.792c0.02,0.084,0.02,0.168,0.044,0.252c0.184,0.652,0.464,1.244,0.784,1.804
	c0.02,0.084,0.02,0.164,0.044,0.248c0.184,0.652,0.464,1.252,0.784,1.804c0.02,0.084,0.02,0.16,0.044,0.244
	c0.184,0.652,0.464,1.248,0.784,1.804c0.02,0.084,0.02,0.164,0.044,0.252c0.184,0.652,0.464,1.244,0.784,1.804
	c0.02,0.084,0.02,0.164,0.044,0.248c0.184,0.652,0.464,1.252,0.784,1.804c0.02,0.084,0.02,0.16,0.044,0.244
	c0.184,0.652,0.464,1.248,0.784,1.804c0.02,0.084,0.02,0.164,0.044,0.252c0.184,0.652,0.464,1.248,0.784,1.8
	c0.02,0.084,0.02,0.164,0.044,0.248c0.184,0.652,0.464,1.244,0.784,1.804c0.02,0.084,0.02,0.164,0.044,0.248
	c0.184,0.652,0.464,1.252,0.784,1.804c0.02,0.084,0.02,0.16,0.044,0.248c0.184,0.648,0.464,1.244,0.784,1.8
	c0.02,0.084,0.02,0.164,0.044,0.252c0.184,0.652,0.464,1.248,0.784,1.804c0.02,0.084,0.02,0.164,0.044,0.244
	c0.184,0.652,0.464,1.248,0.784,1.804c0.02,0.084,0.02,0.164,0.044,0.248c0.184,0.652,0.464,1.252,0.784,1.804
	c0.02,0.084,0.02,0.16,0.044,0.248c0.184,0.652,0.464,1.244,0.784,1.804c0.02,0.084,0.02,0.164,0.044,0.248
	c0.184,0.648,0.46,1.24,0.776,1.796c0.024,0.084,0.024,0.168,0.048,0.252c0.184,0.652,0.464,1.252,0.78,1.804
	c0.024,0.084,0.024,0.16,0.048,0.248c0.184,0.652,0.456,1.244,0.78,1.8c0.024,0.084,0.024,0.164,0.048,0.252
	c0.184,0.652,0.46,1.248,0.78,1.804c0.02,0.084,0.02,0.164,0.048,0.244c0.132,0.488,0.328,0.944,0.548,1.392l-6.732,3.768
	l-29.48-8.292c-4.252-1.2-8.672,1.276-9.872,5.536c-0.608,2.184-0.248,4.404,0.816,6.216c0.188,0.72,0.452,1.412,0.828,2.048
	c0.188,0.72,0.452,1.416,0.828,2.052c0.188,0.724,0.452,1.416,0.828,2.056c0.188,0.72,0.452,1.412,0.828,2.048
	c0.188,0.72,0.452,1.416,0.828,2.052c0.188,0.72,0.448,1.408,0.82,2.04c0.188,0.728,0.456,1.416,0.832,2.064
	c0.188,0.72,0.452,1.412,0.828,2.048c0.188,0.724,0.452,1.416,0.828,2.056c0.188,0.72,0.452,1.412,0.828,2.048
	c0.188,0.72,0.452,1.416,0.828,2.052c0.188,0.72,0.452,1.416,0.828,2.048c0.188,0.724,0.452,1.416,0.828,2.056
	c0.188,0.72,0.452,1.416,0.828,2.052c0.188,0.72,0.452,1.416,0.828,2.048c0.188,0.724,0.452,1.416,0.828,2.056
	c0.188,0.72,0.452,1.412,0.828,2.048c0.188,0.72,0.448,1.416,0.828,2.052c0.188,0.724,0.448,1.416,0.828,2.052
	c0.188,0.72,0.448,1.412,0.828,2.052c0.188,0.716,0.444,1.404,0.82,2.036c0.188,0.728,0.452,1.42,0.832,2.064
	c0.188,0.724,0.448,1.416,0.828,2.056c0.188,0.72,0.448,1.412,0.824,2.048c0.192,0.72,0.452,1.416,0.828,2.052
	c0.192,0.724,0.452,1.416,0.828,2.052c0.192,0.72,0.452,1.412,0.828,2.052c0.192,0.72,0.452,1.412,0.828,2.048
	c0.188,0.724,0.452,1.416,0.828,2.056c0.188,0.72,0.452,1.412,0.828,2.048c0.188,0.72,0.452,1.412,0.828,2.052
	c0.188,0.72,0.452,1.416,0.828,2.052c0.188,0.724,0.452,1.416,0.828,2.052c0.188,0.72,0.452,1.412,0.828,2.052
	c0.188,0.72,0.452,1.416,0.828,2.048c0.188,0.724,0.448,1.412,0.824,2.048c0.188,0.724,0.452,1.416,0.828,2.056
	c0.188,0.72,0.452,1.412,0.828,2.052c0.188,0.724,0.452,1.416,0.828,2.052c0.188,0.72,0.452,1.412,0.828,2.052
	c0.188,0.72,0.452,1.412,0.828,2.052c0.188,0.72,0.452,1.416,0.828,2.048c0.188,0.724,0.452,1.416,0.828,2.056
	c0.188,0.72,0.452,1.412,0.828,2.048c0.188,0.72,0.452,1.412,0.828,2.052c0.188,0.724,0.452,1.416,0.828,2.052
	c0.188,0.72,0.448,1.416,0.828,2.052c0.188,0.72,0.448,1.412,0.828,2.048c0.188,0.724,0.448,1.416,0.828,2.052
	c0.188,0.724,0.448,1.416,0.828,2.052c0.188,0.716,0.444,1.408,0.82,2.04c0.188,0.728,0.452,1.42,0.832,2.064
	c0.188,0.724,0.448,1.416,0.828,2.052c0.188,0.72,0.448,1.416,0.828,2.052c0.188,0.72,0.448,1.412,0.824,2.048
	c0.192,0.724,0.452,1.416,0.828,2.056c0.192,0.72,0.452,1.412,0.828,2.048c0.192,0.72,0.452,1.416,0.828,2.052
	c0.192,0.72,0.452,1.416,0.828,2.048c0.188,0.724,0.452,1.416,0.828,2.056c0.188,0.72,0.452,1.416,0.828,2.052
	c0.188,0.72,0.452,1.416,0.828,2.048c0.188,0.724,0.452,1.416,0.828,2.056c0.188,0.72,0.452,1.412,0.828,2.048
	c0.188,0.72,0.452,1.416,0.828,2.052c0.188,0.724,0.452,1.416,0.828,2.052c0.188,0.716,0.448,1.408,0.824,2.044
	c0.188,0.724,0.452,1.416,0.828,2.056c0.188,0.72,0.452,1.416,0.828,2.052c0.188,0.724,0.452,1.416,0.828,2.056
	c0.188,0.72,0.452,1.412,0.828,2.048c0.188,0.72,0.452,1.416,0.828,2.052c0.188,0.724,0.452,1.416,0.828,2.052
	c0.188,0.72,0.452,1.412,0.828,2.052c0.188,0.72,0.452,1.412,0.828,2.048c0.188,0.724,0.452,1.416,0.828,2.056
	c0.188,0.72,0.452,1.412,0.828,2.048c0.188,0.72,0.448,1.412,0.828,2.052c0.188,0.72,0.448,1.416,0.828,2.052
	c0.188,0.724,0.448,1.416,0.828,2.052c0.188,0.72,0.448,1.412,0.828,2.052c0.188,0.716,0.444,1.408,0.82,2.036
	c0.188,0.732,0.452,1.42,0.832,2.068c0.112,0.44,0.324,0.852,0.512,1.264C185.72,504.528,219.98,512,256,512
	C362.388,512,453.6,447.088,492.252,354.724z"/>
<g>
	<path style="fill:#F5F5F5;" d="M256,373.68c-1.384,0-2.76-0.356-4-1.072l-94.984-54.84C154.54,316.34,152,310.86,152,308V204
		c0-2.86,2.54-8.34,5.016-9.764L252,139.392c2.476-1.424,5.524-1.424,8,0l94.984,54.844C357.46,195.66,360,197.144,360,200v108
		c0,2.86-2.54,8.34-5.016,9.768L260,372.608C258.76,373.324,257.384,373.68,256,373.68z M168,304l88,52.44L344,304V204l-88-48.436
		L168,208V304z"/>
	<path style="fill:#F5F5F5;" d="M268,424c0,6.6-5.4,12-12,12l0,0c-6.6,0-12-5.4-12-12V88c0-6.6,5.4-12,12-12l0,0c6.6,0,12,5.4,12,12
		V424z"/>
	<path style="fill:#F5F5F5;" d="M256,120c-2.048,0-4.092-0.78-5.656-2.344l-28-28c-3.124-3.124-3.124-8.188,0-11.312
		s8.188-3.124,11.312,0L256,100.688l22.344-22.344c3.124-3.124,8.188-3.124,11.312,0s3.124,8.188,0,11.312l-28,28
		C260.092,119.22,258.048,120,256,120z"/>
	<path style="fill:#F5F5F5;" d="M256,392c-2.048,0-4.092,0.78-5.656,2.344l-28,28c-3.124,3.124-3.124,8.188,0,11.312
		s8.188,3.124,11.312,0L256,411.312l22.344,22.344c3.124,3.124,8.188,3.124,11.312,0s3.124-8.188,0-11.312l-28-28
		C260.092,392.78,258.048,392,256,392z"/>
	<path style="fill:#F5F5F5;" d="M115.34,348.644c-5.752,3.232-13.104,1.16-16.336-4.596l0,0c-3.228-5.752-1.16-13.1,4.596-16.336
		l293.06-164.356c5.752-3.232,13.104-1.16,16.336,4.596l0,0c3.228,5.752,1.16,13.1-4.596,16.336L115.34,348.644z"/>
	<path style="fill:#F5F5F5;" d="M374.616,189.472c-1-1.784-1.32-3.948-0.728-6.084l10.732-38.116
		c1.196-4.252,5.608-6.728,9.868-5.532c4.252,1.196,6.732,5.608,5.532,9.868l-8.56,30.416l30.416,8.564
		c4.252,1.196,6.736,5.608,5.536,9.868c-1.196,4.256-5.608,6.732-9.868,5.532l-38.112-10.728
		C377.3,192.664,375.62,191.256,374.616,189.472z"/>
	<path style="fill:#F5F5F5;" d="M137.384,322.528c-1.004-1.784-2.684-3.192-4.812-3.788L94.46,308.016
		c-4.252-1.2-8.672,1.276-9.868,5.532c-1.2,4.256,1.276,8.672,5.536,9.868l30.416,8.564l-8.56,30.416
		c-1.2,4.252,1.276,8.668,5.532,9.872c4.252,1.196,8.672-1.28,9.868-5.54l10.732-38.112
		C138.704,326.476,138.384,324.312,137.384,322.528z"/>
	<path style="fill:#F5F5F5;" d="M396.66,348.644c5.752,3.232,13.104,1.16,16.336-4.596l0,0c3.228-5.752,1.16-13.1-4.596-16.336
		L115.34,163.356c-5.752-3.232-13.104-1.16-16.336,4.596l0,0c-3.228,5.752-1.16,13.1,4.596,16.336L396.66,348.644z"/>
	<path style="fill:#F5F5F5;" d="M137.384,189.472c1-1.784,1.32-3.948,0.728-6.084l-10.732-38.116
		c-1.196-4.252-5.608-6.728-9.868-5.532c-4.252,1.196-6.732,5.608-5.532,9.868l8.56,30.416l-30.416,8.564
		c-4.252,1.196-6.736,5.608-5.536,9.868c1.196,4.256,5.608,6.732,9.868,5.532l38.112-10.728
		C134.7,192.664,136.38,191.256,137.384,189.472z"/>
	<path style="fill:#F5F5F5;" d="M374.616,322.528c1.004-1.784,2.684-3.192,4.812-3.788l38.112-10.724
		c4.252-1.2,8.672,1.276,9.868,5.532c1.2,4.256-1.276,8.672-5.536,9.868l-30.416,8.564l8.56,30.416
		c1.2,4.252-1.276,8.668-5.532,9.872c-4.252,1.196-8.672-1.28-9.868-5.54l-10.732-38.112
		C373.296,326.476,373.616,324.312,374.616,322.528z"/>
</g>
<g>
</g>
<g>
</g>
<g>
</g>
<g>
</g>
<g>
</g>
<g>
</g>
<g>
</g>
<g>
</g>
<g>
</g>
<g>
</g>
<g>
</g>
<g>
</g>
<g>
</g>
<g>
</g>
<g>
</g>
</svg>
